#N canvas 0 23 1280 673 16;
#X obj 6 679 hip~ 5;
#X floatatom 8 57 4 0 100 0 - - -;
#X obj 7 626 *~;
#X floatatom 1685 186 0 50 200 0 - - -;
#X obj 7 438 +~;
#X obj 6 390 samphold~;
#X obj 7 414 *~;
#X obj 172 435 r~ phase;
#X obj 357 270 s~ phase;
#X obj 94 391 r~ phase;
#X obj 42 415 r~ phase;
#X obj 8 100 s chunk-size;
#X floatatom 357 93 0 0 0 0 - - -;
#X text 124 92 chunk size;
#X text 121 106 in seconds;
#X obj 369 139 r chunk-size;
#X obj 369 164 t b f;
#X obj 172 459 -~ 0.5;
#X obj 172 483 *~ 0.5;
#X obj 172 606 cos~;
#X obj 357 244 phasor~;
#X obj 7 323 s~ read-pt;
#X obj 45 438 r~ read-pt;
#X obj 444 263 +~ 0.5;
#X obj 445 289 wrap~;
#X obj 445 314 s~ phase2;
#X obj 6 655 +~;
#X text 391 103 <-- transposition \, halftones/10;
#X obj 8 77 * 0.001;
#X obj 7 275 phasor~;
#X obj 7 462 *~ 44100;
#X obj 7 602 tabread4~ table23;
#X obj 6 365 r chunk-size;
#X obj 6 488 +~ 1;
#X floatatom 365 221 5 0 0 0 - - -;
#X obj 15 229 s precession;
#X obj 482 163 t b f;
#X obj 482 138 r precession;
#X obj 7 206 * 0.01;
#X obj 258 635 *~;
#X obj 258 447 +~;
#X obj 257 399 samphold~;
#X obj 258 423 *~;
#X obj 423 468 -~ 0.5;
#X obj 423 492 *~ 0.5;
#X obj 423 615 cos~;
#X obj 296 447 r~ read-pt;
#X obj 258 471 *~ 44100;
#X obj 258 611 tabread4~ table23;
#X obj 257 374 r chunk-size;
#X obj 257 497 +~ 1;
#X obj 345 400 r~ phase2;
#X obj 293 424 r~ phase2;
#X obj 423 444 r~ phase2;
#X text 37 183 <-- precession \, percent;
#X obj 8 13 loadbang;
#X msg 8 35 25;
#X floatatom 139 252 4 0 900 0 - - -;
#X obj 139 272 * 0.001;
#X text 48 57 <-- chunk size (msec);
#X obj 357 196 expr (pow(2 \, $f1/120)-$f3)/$f2;
#X obj 139 297 t b f;
#X obj 139 206 loadbang;
#X text 182 248 <-- loop length;
#X text 223 263 (msec);
#X obj 7 299 *~;
#X obj 7 251 /;
#X obj 5 545 wrap~;
#X obj 5 514 /~;
#X obj 44 514 r \$0-length-samples;
#X obj 5 576 *~;
#X obj 258 555 wrap~;
#X obj 258 524 /~;
#X obj 297 524 r \$0-length-samples;
#X obj 258 586 *~;
#X obj 12 783 *~;
#X obj 4 813 dac~;
#X obj 57 810 line~;
#X obj 57 782 pack f 50;
#X obj 1748 260 vsl 20 100 0 1 0 0 empty empty empty 0 -9 0 10 -232576
-1 -1 0 1;
#X obj 7 136 loadbang;
#X msg 7 158 100;
#X obj 1016 107 tgl 15 0 empty empty KIRBY 17 7 0 10 -260474 -1 -258100
0 1;
#X floatatom 759 550 5 0 0 0 - - -;
#X obj 759 575 sel 0 1;
#X obj 759 619 bng 15 250 50 0 empty empty empty 17 7 0 10 -262144
-1 -1;
#X obj 783 620 bng 15 250 50 0 empty empty empty 17 7 0 10 -262144
-1 -1;
#X obj 809 623 bng 15 250 50 0 empty empty empty 17 7 0 10 -262144
-1 -1;
#X msg 139 230 80000;
#X msg 774 664 120;
#X msg 771 708 24;
#X msg 728 706 -70;
#X floatatom 100 851 5 0 0 0 - - -;
#X msg 728 747 0.224;
#X msg 797 746 0.6;
#X obj 1016 126 tgl 15 0 empty empty CLASSIC 17 7 0 10 -179968 -1 -4160
0 1;
#X floatatom 918 547 5 0 0 0 - - -;
#X obj 918 572 sel 0 1;
#X obj 918 616 bng 15 250 50 0 empty empty empty 17 7 0 10 -262144
-1 -1;
#X obj 942 617 bng 15 250 50 0 empty empty empty 17 7 0 10 -262144
-1 -1;
#X obj 968 620 bng 15 250 50 0 empty empty empty 17 7 0 10 -262144
-1 -1;
#X msg 887 744 0.224;
#X msg 956 743 0.6;
#X msg 933 661 170;
#X msg 888 659 90;
#X msg 887 703 -40;
#X msg 930 705 -20;
#X text 158 13 Final Project - Cardiorhythmic;
#X text 309 33 on: excited [x];
#X obj 219 86 comport 9600;
#X msg 220 56 devices;
#X msg 279 58 open 2;
#X floatatom 219 109 5 0 0 0 - - -;
#X msg 348 61 close 2;
#N canvas 493 29 673 497 table 0;
#N canvas 0 22 450 300 (subpatch) 0;
#X array table23 4.55448e+06 float 0;
#X coords 0 1.02 4.55448e+06 -1.02 200 130 1;
#X restore 442 61 graph;
#X obj 42 354 soundfiler;
#X floatatom 42 413 7 0 0 1 length-samples - -;
#X obj 56 382 s \$0-length-samples;
#X obj 42 253 t s b;
#X obj 42 301 pack s s;
#X msg 42 327 read -resize \$1 \$2;
#X obj 42 203 openpanel;
#X symbolatom 42 227 70 0 0 0 - - -;
#X obj 103 277 symbol table23;
#X obj 42 175 inlet;
#X connect 1 0 3 0;
#X connect 1 0 2 0;
#X connect 4 0 5 0;
#X connect 4 1 9 0;
#X connect 5 0 6 0;
#X connect 6 0 1 0;
#X connect 7 0 8 0;
#X connect 8 0 4 0;
#X connect 9 0 5 1;
#X connect 10 0 7 0;
#X restore 855 14 pd table;
#X obj 858 117 bng 15 250 50 0 empty empty empty 17 7 0 10 -228856
-1 -1;
#X obj 133 134 env~ 8192;
#X floatatom 141 165 5 0 0 0 - - -;
#X obj 274 136 b;
#X obj 256 198 snapshot~;
#X obj 245 775 bng 15 250 50 0 empty empty empty 17 7 0 10 -262144
-1 -1;
#X floatatom 259 225 5 0 0 0 - - -;
#X obj 244 797 t b b;
#X obj 244 822 timer;
#X floatatom 245 848 6 0 0 0 - - -;
#X text 269 726 BPM CALCULATOR;
#X obj 241 879 / 1000;
#X floatatom 237 906 5 0 0 0 - - -;
#X obj 242 931 t b f;
#X obj 239 983 /;
#X msg 235 959 1;
#X obj 234 1008 * 60;
#X floatatom 231 1033 5 0 0 0 - - -;
#X obj 295 991 / 70;
#X obj 295 1024 * 90;
#X floatatom 406 982 5 0 0 0 - - -;
#X obj 400 937 clip 50 200;
#X obj 725 108 bng 15 250 50 0 empty empty RESET 17 7 0 10 -258113
-1 -1;
#X msg 494 71 100;
#X msg 558 69 0;
#X obj 1016 146 tgl 15 0 empty empty BLOODY_TEARS 17 7 0 10 -203904
-1 -99865 0 1;
#X floatatom 1047 540 5 0 0 0 - - -;
#X obj 1047 565 sel 0 1;
#X obj 1047 609 bng 15 250 50 0 empty empty empty 17 7 0 10 -262144
-1 -1;
#X obj 1071 610 bng 15 250 50 0 empty empty empty 17 7 0 10 -262144
-1 -1;
#X obj 1097 613 bng 15 250 50 0 empty empty empty 17 7 0 10 -262144
-1 -1;
#X msg 1016 737 0.224;
#X msg 1085 736 0.6;
#X msg 1059 698 -20;
#X obj 628 206 until;
#X obj 628 262 f;
#X obj 609 147 t f b b;
#X obj 661 262 + 1;
#X msg 643 234 1;
#X obj 628 346 pack f f;
#X obj 628 290 t f f;
#X obj 628 318 - 1;
#X msg 628 178 99;
#X obj 675 337 tabread \$0-history;
#X obj 630 393 s \$0-history;
#X obj 541 374 s \$0-history;
#X obj 541 318 t b f;
#X obj 541 346 pack 99 f;
#N canvas 201 75 555 346 (subpatch) 0;
#X array \$0-history 100 float 2;
#X coords 0 30 100 -5 1000 300 2 0 0;
#X restore 726 215 graph;
#X text 1208 55 CardioRhythmic;
#X obj 208 153 hip~ 0.2;
#X obj 247 749 threshold~ 1.4 100 0 100;
#X obj 725 130 tgl 15 0 empty empty HEART_MONITOR 17 7 0 10 -262144
-1 -258113 0 1;
#X floatatom 623 -4 5 0 0 0 - - -;
#X obj 623 21 sel 0 1;
#X obj 623 65 bng 15 250 50 0 empty empty empty 17 7 0 10 -262144 -1
-1;
#X obj 647 66 bng 15 250 50 0 empty empty empty 17 7 0 10 -262144 -1
-1;
#X obj 1117 106 tgl 15 0 empty empty METROID_1 17 7 0 10 -4034 -1 -258113
0 1;
#X obj 1117 124 tgl 15 0 empty empty METROID_2 17 7 0 10 -204786 -1
-258113 0 1;
#X floatatom 1314 630 5 0 0 0 - - -;
#X obj 1314 655 sel 0 1;
#X obj 1314 699 bng 15 250 50 0 empty empty empty 17 7 0 10 -262144
-1 -1;
#X obj 1338 700 bng 15 250 50 0 empty empty empty 17 7 0 10 -262144
-1 -1;
#X msg 1283 827 0.224;
#X msg 1352 826 0.6;
#X msg 1329 744 170;
#X msg 1326 788 -20;
#X floatatom 1443 610 5 0 0 0 - - -;
#X obj 1443 635 sel 0 1;
#X obj 1443 679 bng 15 250 50 0 empty empty empty 17 7 0 10 -262144
-1 -1;
#X obj 1467 680 bng 15 250 50 0 empty empty empty 17 7 0 10 -262144
-1 -1;
#X msg 1412 807 0.224;
#X msg 1481 806 0.6;
#X msg 1458 724 170;
#X msg 1062 654 120;
#X msg 729 662 60;
#X msg 1016 696 20;
#X msg 1017 652 70;
#X msg 1284 742 70;
#X msg 1413 722 70;
#X msg 1412 766 10;
#X msg 1455 768 0;
#X text 853 94 Load Sound File;
#X text 1731 232 Volume;
#X text 1014 82 Toggle Excited/Relaxed (presets);
#X msg 1283 786 30;
#X text 1530 183 Speed (percentage);
#X connect 0 0 75 0;
#X connect 1 0 28 0;
#X connect 2 0 26 0;
#X connect 3 0 38 0;
#X connect 4 0 30 0;
#X connect 5 0 6 0;
#X connect 6 0 4 0;
#X connect 7 0 17 0;
#X connect 9 0 5 1;
#X connect 10 0 6 1;
#X connect 12 0 60 0;
#X connect 15 0 16 0;
#X connect 16 0 60 0;
#X connect 16 1 60 1;
#X connect 17 0 18 0;
#X connect 18 0 19 0;
#X connect 19 0 2 1;
#X connect 20 0 8 0;
#X connect 20 0 23 0;
#X connect 22 0 4 1;
#X connect 23 0 24 0;
#X connect 24 0 25 0;
#X connect 26 0 0 0;
#X connect 28 0 11 0;
#X connect 29 0 65 0;
#X connect 30 0 33 0;
#X connect 31 0 2 0;
#X connect 32 0 5 0;
#X connect 33 0 68 0;
#X connect 36 0 60 0;
#X connect 36 1 60 2;
#X connect 37 0 36 0;
#X connect 38 0 35 0;
#X connect 38 0 66 0;
#X connect 39 0 26 1;
#X connect 40 0 47 0;
#X connect 41 0 42 0;
#X connect 42 0 40 0;
#X connect 43 0 44 0;
#X connect 44 0 45 0;
#X connect 45 0 39 1;
#X connect 46 0 40 1;
#X connect 47 0 50 0;
#X connect 48 0 39 0;
#X connect 49 0 41 0;
#X connect 50 0 72 0;
#X connect 51 0 41 1;
#X connect 52 0 42 1;
#X connect 53 0 43 0;
#X connect 55 0 56 0;
#X connect 56 0 1 0;
#X connect 57 0 58 0;
#X connect 58 0 61 0;
#X connect 58 0 65 1;
#X connect 60 0 20 0;
#X connect 60 0 34 0;
#X connect 61 0 66 0;
#X connect 61 1 66 1;
#X connect 62 0 88 0;
#X connect 65 0 21 0;
#X connect 66 0 29 0;
#X connect 67 0 70 0;
#X connect 68 0 67 0;
#X connect 69 0 68 1;
#X connect 69 0 70 1;
#X connect 70 0 31 0;
#X connect 71 0 74 0;
#X connect 72 0 71 0;
#X connect 73 0 72 1;
#X connect 73 0 74 1;
#X connect 74 0 48 0;
#X connect 75 0 76 0;
#X connect 75 0 76 1;
#X connect 77 0 75 1;
#X connect 78 0 77 0;
#X connect 79 0 78 0;
#X connect 79 0 92 0;
#X connect 80 0 81 0;
#X connect 81 0 3 0;
#X connect 82 0 83 0;
#X connect 83 0 84 0;
#X connect 84 0 85 0;
#X connect 84 1 86 0;
#X connect 84 2 87 0;
#X connect 85 0 190 0;
#X connect 85 0 91 0;
#X connect 85 0 93 0;
#X connect 86 0 89 0;
#X connect 86 0 90 0;
#X connect 86 0 94 0;
#X connect 88 0 57 0;
#X connect 89 0 3 0;
#X connect 90 0 12 0;
#X connect 91 0 12 0;
#X connect 93 0 79 0;
#X connect 94 0 79 0;
#X connect 95 0 96 0;
#X connect 96 0 97 0;
#X connect 97 0 98 0;
#X connect 97 1 99 0;
#X connect 97 2 100 0;
#X connect 98 0 104 0;
#X connect 98 0 105 0;
#X connect 98 0 101 0;
#X connect 99 0 103 0;
#X connect 99 0 106 0;
#X connect 99 0 102 0;
#X connect 101 0 79 0;
#X connect 102 0 79 0;
#X connect 103 0 3 0;
#X connect 104 0 3 0;
#X connect 105 0 12 0;
#X connect 106 0 12 0;
#X connect 109 0 112 0;
#X connect 110 0 109 0;
#X connect 111 0 109 0;
#X connect 112 0 116 0;
#X connect 112 0 118 0;
#X connect 112 0 165 0;
#X connect 113 0 109 0;
#X connect 115 0 114 0;
#X connect 116 0 117 0;
#X connect 118 0 119 0;
#X connect 119 0 121 0;
#X connect 119 0 151 0;
#X connect 120 0 122 0;
#X connect 122 0 123 0;
#X connect 122 1 123 1;
#X connect 123 0 124 0;
#X connect 124 0 126 0;
#X connect 126 0 127 0;
#X connect 127 0 128 0;
#X connect 128 0 130 0;
#X connect 128 1 129 1;
#X connect 129 0 131 0;
#X connect 130 0 129 0;
#X connect 131 0 132 0;
#X connect 132 0 133 0;
#X connect 133 0 134 0;
#X connect 134 0 136 0;
#X connect 135 0 3 0;
#X connect 136 0 135 0;
#X connect 137 0 138 0;
#X connect 137 0 139 0;
#X connect 138 0 3 0;
#X connect 139 0 12 0;
#X connect 140 0 141 0;
#X connect 141 0 142 0;
#X connect 142 0 143 0;
#X connect 142 1 144 0;
#X connect 142 2 145 0;
#X connect 143 0 192 0;
#X connect 143 0 191 0;
#X connect 143 0 146 0;
#X connect 144 0 189 0;
#X connect 144 0 148 0;
#X connect 144 0 147 0;
#X connect 146 0 79 0;
#X connect 147 0 79 0;
#X connect 148 0 12 0;
#X connect 149 0 150 0;
#X connect 150 0 152 0;
#X connect 150 0 155 0;
#X connect 151 0 161 0;
#X connect 151 1 157 0;
#X connect 151 2 153 0;
#X connect 152 0 150 1;
#X connect 153 0 150 1;
#X connect 154 0 159 0;
#X connect 155 0 156 0;
#X connect 155 1 158 0;
#X connect 156 0 154 0;
#X connect 157 0 149 0;
#X connect 158 0 154 1;
#X connect 161 0 162 0;
#X connect 161 1 162 1;
#X connect 162 0 160 0;
#X connect 165 0 119 0;
#X connect 165 0 166 0;
#X connect 166 0 120 0;
#X connect 167 0 168 0;
#X connect 168 0 169 0;
#X connect 169 0 171 0;
#X connect 169 1 170 0;
#X connect 170 0 111 0;
#X connect 171 0 113 0;
#X connect 172 0 174 0;
#X connect 173 0 182 0;
#X connect 174 0 175 0;
#X connect 175 0 176 0;
#X connect 175 1 177 0;
#X connect 176 0 193 0;
#X connect 176 0 200 0;
#X connect 176 0 178 0;
#X connect 177 0 180 0;
#X connect 177 0 181 0;
#X connect 177 0 179 0;
#X connect 178 0 79 0;
#X connect 179 0 79 0;
#X connect 180 0 3 0;
#X connect 181 0 12 0;
#X connect 182 0 183 0;
#X connect 183 0 184 0;
#X connect 183 1 185 0;
#X connect 184 0 194 0;
#X connect 184 0 195 0;
#X connect 184 0 186 0;
#X connect 185 0 188 0;
#X connect 185 0 196 0;
#X connect 185 0 187 0;
#X connect 186 0 79 0;
#X connect 187 0 79 0;
#X connect 188 0 3 0;
#X connect 189 0 3 0;
#X connect 190 0 3 0;
#X connect 191 0 12 0;
#X connect 192 0 3 0;
#X connect 193 0 3 0;
#X connect 194 0 3 0;
#X connect 195 0 12 0;
#X connect 196 0 12 0;
#X connect 200 0 12 0;
#X coords 0 -1 1 1 1100 480 1 700 50;
